<svg width="0" height="0" class="hidden">
  <symbol fill="none" xmlns="http://www.w3.org/2000/svg" viewBox="0 0 24 24" id="call">
    <path fill-rule="evenodd" clip-rule="evenodd" d="M8.20049 15.799C1.3025 8.90022 2.28338 5.74115 3.01055 4.72316C3.10396 4.55862 5.40647 1.11188 7.87459 3.13407C14.0008 8.17945 6.2451 7.46611 11.3894 12.6113C16.5348 17.7554 15.8214 9.99995 20.8659 16.1249C22.8882 18.594 19.4413 20.8964 19.2778 20.9888C18.2598 21.717 15.0995 22.6978 8.20049 15.799Z" stroke="#FF5722" stroke-width="1.5" stroke-linecap="round" stroke-linejoin="round"></path>
  </symbol>
  <symbol xmlns="http://www.w3.org/2000/svg" xmlns:xlink="http://www.w3.org/1999/xlink" viewBox="0,0,256,256" id="facebook">
    <g fill="#ff5722" fill-rule="nonzero" stroke="none" stroke-width="1" stroke-linecap="butt" stroke-linejoin="miter" stroke-miterlimit="10" stroke-dasharray="" stroke-dashoffset="0" font-family="none" font-weight="none" font-size="none" text-anchor="none">
      <g transform="scale(10.66667,10.66667)">
        <path d="M12,2c-5.523,0 -10,4.477 -10,10c0,5.013 3.693,9.153 8.505,9.876v-7.226h-2.474v-2.629h2.474v-1.749c0,-2.896 1.411,-4.167 3.818,-4.167c1.153,0 1.762,0.085 2.051,0.124v2.294h-1.642c-1.022,0 -1.379,0.969 -1.379,2.061v1.437h2.995l-0.406,2.629h-2.588v7.247c4.881,-0.661 8.646,-4.835 8.646,-9.897c0,-5.523 -4.477,-10 -10,-10z"></path>
      </g>
    </g>
  </symbol>
  <symbol xmlns="http://www.w3.org/2000/svg" xmlns:xlink="http://www.w3.org/1999/xlink" viewBox="0,0,256,256" id="linkedin">
    <g fill="#ff5722" fill-rule="nonzero" stroke="none" stroke-width="1" stroke-linecap="butt" stroke-linejoin="miter" stroke-miterlimit="10" stroke-dasharray="" stroke-dashoffset="0" font-family="none" font-weight="none" font-size="none" text-anchor="none">
      <g transform="scale(10.66667,10.66667)">
        <path d="M19,3h-14c-1.105,0 -2,0.895 -2,2v14c0,1.105 0.895,2 2,2h14c1.105,0 2,-0.895 2,-2v-14c0,-1.105 -0.895,-2 -2,-2zM9,17h-2.523v-7h2.523zM7.694,8.717c-0.771,0 -1.286,-0.514 -1.286,-1.2c0,-0.686 0.514,-1.2 1.371,-1.2c0.771,0 1.286,0.514 1.286,1.2c0,0.686 -0.514,1.2 -1.371,1.2zM18,17h-2.442v-3.826c0,-1.058 -0.651,-1.302 -0.895,-1.302c-0.244,0 -1.058,0.163 -1.058,1.302c0,0.163 0,3.826 0,3.826h-2.523v-7h2.523v0.977c0.325,-0.57 0.976,-0.977 2.197,-0.977c1.221,0 2.198,0.977 2.198,3.174z"></path>
      </g>
    </g>
  </symbol>
  <symbol fill="none" xmlns="http://www.w3.org/2000/svg" viewBox="0 0 24 24" id="location">
    <path fill-rule="evenodd" clip-rule="evenodd" d="M14.5103 10.7105C14.5103 9.3292 13.391 8.20996 12.0097 8.20996C10.6295 8.20996 9.51025 9.3292 9.51025 10.7105C9.51025 12.0907 10.6295 13.21 12.0097 13.21C13.391 13.21 14.5103 12.0907 14.5103 10.7105Z" stroke="#FF5722" stroke-width="1.5" stroke-linecap="round" stroke-linejoin="round"></path>
    <path fill-rule="evenodd" clip-rule="evenodd" d="M11.9995 21C9.10148 21 4.5 15.9587 4.5 10.5986C4.5 6.40246 7.8571 3 11.9995 3C16.1419 3 19.5 6.40246 19.5 10.5986C19.5 15.9587 14.8985 21 11.9995 21Z" stroke="#FF5722" stroke-width="1.5" stroke-linecap="round" stroke-linejoin="round"></path>
  </symbol>
  <symbol fill="none" xmlns="http://www.w3.org/2000/svg" viewBox="0 0 24 24" id="message">
    <path d="M17.5448 9.01892C17.5448 9.01892 14.3348 12.8716 11.9869 12.8716C9.64004 12.8716 6.39392 9.01892 6.39392 9.01892" stroke="#FF5722" stroke-width="1.5" stroke-linecap="round" stroke-linejoin="round"></path>
    <path fill-rule="evenodd" clip-rule="evenodd" d="M2.45203 11.9687C2.45203 5.13063 4.83298 2.85193 11.9758 2.85193C19.1187 2.85193 21.4996 5.13063 21.4996 11.9687C21.4996 18.8058 19.1187 21.0855 11.9758 21.0855C4.83298 21.0855 2.45203 18.8058 2.45203 11.9687Z" stroke="#FF5722" stroke-width="1.5" stroke-linecap="round" stroke-linejoin="round"></path>
  </symbol>
  <symbol xmlns="http://www.w3.org/2000/svg" xmlns:xlink="http://www.w3.org/1999/xlink" viewBox="0,0,256,256" id="twitter">
    <g fill="#ff5722" fill-rule="nonzero" stroke="none" stroke-width="1" stroke-linecap="butt" stroke-linejoin="miter" stroke-miterlimit="10" stroke-dasharray="" stroke-dashoffset="0" font-family="none" font-weight="none" font-size="none" text-anchor="none">
      <g transform="scale(10.66667,10.66667)">
        <path d="M22,3.999c-0.78,0.463 -2.345,1.094 -3.265,1.276c-0.027,0.007 -0.049,0.016 -0.075,0.023c-0.813,-0.802 -1.927,-1.299 -3.16,-1.299c-2.485,0 -4.5,2.015 -4.5,4.5c0,0.131 -0.011,0.372 0,0.5c-3.353,0 -5.905,-1.756 -7.735,-4c-0.199,0.5 -0.286,1.29 -0.286,2.032c0,1.401 1.095,2.777 2.8,3.63c-0.314,0.081 -0.66,0.139 -1.02,0.139c-0.581,0 -1.196,-0.153 -1.759,-0.617c0,0.017 0,0.033 0,0.051c0,1.958 2.078,3.291 3.926,3.662c-0.375,0.221 -1.131,0.243 -1.5,0.243c-0.26,0 -1.18,-0.119 -1.426,-0.165c0.514,1.605 2.368,2.507 4.135,2.539c-1.382,1.084 -2.341,1.486 -5.171,1.486h-0.964c1.788,1.146 4.065,2.001 6.347,2.001c7.43,0 11.653,-5.663 11.653,-11.001c0,-0.086 -0.002,-0.266 -0.005,-0.447c0,-0.018 0.005,-0.035 0.005,-0.053c0,-0.027 -0.008,-0.053 -0.008,-0.08c-0.003,-0.136 -0.006,-0.263 -0.009,-0.329c0.79,-0.57 1.475,-1.281 2.017,-2.091c-0.725,0.322 -1.503,0.538 -2.32,0.636c0.834,-0.5 2.019,-1.692 2.32,-2.636z"></path>
      </g>
    </g>
  </symbol>
</svg>